<svg xmlns="http://www.w3.org/2000/svg" xmlns:xlink="http://www.w3.org/1999/xlink" width="42" zoomAndPan="magnify" viewBox="0 0 31.5 31.499999" height="42" preserveAspectRatio="xMidYMid meet" version="1.0"><defs><clipPath id="df32516aa8"><path d="M 0 21 L 31 21 L 31 24.5 L 0 24.5 Z M 0 21 " clip-rule="nonzero"/></clipPath><clipPath id="aae1e5a110"><path d="M 0 6.78125 L 31 6.78125 L 31 19 L 0 19 Z M 0 6.78125 " clip-rule="nonzero"/></clipPath></defs><path fill="#e6d51a" d="M 29.730469 18.070312 C 29.730469 17.871094 29.566406 17.703125 29.371094 17.703125 C 29.175781 17.703125 29.011719 17.867188 29.011719 18.070312 C 29.011719 18.273438 29.175781 18.433594 29.371094 18.433594 C 29.566406 18.433594 29.730469 18.265625 29.730469 18.070312 Z M 29.730469 18.070312 " fill-opacity="1" fill-rule="nonzero"/><path fill="#e6d51a" d="M 6.1875 21.503906 C 6.1875 21.703125 6.351562 21.871094 6.546875 21.871094 C 6.746094 21.871094 6.914062 21.707031 6.914062 21.503906 C 6.914062 21.304688 6.75 21.140625 6.546875 21.140625 C 6.347656 21.140625 6.1875 21.304688 6.1875 21.503906 Z M 6.1875 21.503906 " fill-opacity="1" fill-rule="nonzero"/><path fill="#e6d51a" d="M 1.460938 14.578125 C 1.261719 14.578125 1.097656 14.738281 1.097656 14.941406 C 1.097656 15.144531 1.261719 15.308594 1.460938 15.308594 C 1.65625 15.308594 1.824219 15.144531 1.824219 14.941406 C 1.824219 14.738281 1.65625 14.578125 1.460938 14.578125 Z M 1.460938 14.578125 " fill-opacity="1" fill-rule="nonzero"/><path fill="#e6d51a" d="M 2.179688 16.59375 C 1.984375 16.59375 1.820312 16.757812 1.820312 16.960938 C 1.820312 17.160156 1.984375 17.324219 2.179688 17.324219 C 2.375 17.324219 2.546875 17.160156 2.546875 16.960938 C 2.546875 16.757812 2.375 16.59375 2.179688 16.59375 Z M 2.179688 16.59375 " fill-opacity="1" fill-rule="nonzero"/><path fill="#e6d51a" d="M 2.144531 19.371094 C 1.949219 19.371094 1.785156 19.535156 1.785156 19.738281 C 1.785156 19.9375 1.949219 20.101562 2.144531 20.101562 C 2.34375 20.101562 2.507812 19.9375 2.507812 19.738281 C 2.507812 19.535156 2.34375 19.371094 2.144531 19.371094 Z M 2.144531 19.371094 " fill-opacity="1" fill-rule="nonzero"/><path fill="#e6d51a" d="M 4.625 19.15625 C 4.625 19.351562 4.789062 19.519531 4.984375 19.519531 C 5.183594 19.519531 5.351562 19.359375 5.351562 19.15625 C 5.351562 18.953125 5.1875 18.789062 4.984375 18.789062 C 4.785156 18.789062 4.625 18.957031 4.625 19.15625 Z M 4.625 19.15625 " fill-opacity="1" fill-rule="nonzero"/><path fill="#e6d51a" d="M 11.1875 17.210938 C 11.1875 17.011719 11.027344 16.84375 10.824219 16.84375 C 10.621094 16.84375 10.464844 17.007812 10.464844 17.210938 C 10.464844 17.410156 10.625 17.574219 10.824219 17.574219 C 11.019531 17.574219 11.1875 17.410156 11.1875 17.210938 Z M 11.1875 17.210938 " fill-opacity="1" fill-rule="nonzero"/><path fill="#e6d51a" d="M 11.074219 19.59375 C 11.269531 19.59375 11.4375 19.429688 11.4375 19.226562 C 11.4375 19.027344 11.277344 18.863281 11.074219 18.863281 C 10.871094 18.863281 10.714844 19.027344 10.714844 19.226562 C 10.714844 19.429688 10.875 19.59375 11.074219 19.59375 Z M 11.074219 19.59375 " fill-opacity="1" fill-rule="nonzero"/><path fill="#e6d51a" d="M 3.640625 20.832031 C 3.445312 20.832031 3.28125 20.996094 3.28125 21.199219 C 3.28125 21.398438 3.445312 21.5625 3.640625 21.5625 C 3.835938 21.5625 4 21.398438 4 21.199219 C 4 20.996094 3.835938 20.832031 3.640625 20.832031 Z M 3.640625 20.832031 " fill-opacity="1" fill-rule="nonzero"/><path fill="#e6d51a" d="M 8.363281 19.117188 C 8.363281 19.3125 8.527344 19.480469 8.730469 19.480469 C 8.929688 19.480469 9.089844 19.320312 9.089844 19.117188 C 9.089844 18.914062 8.925781 18.753906 8.730469 18.753906 C 8.53125 18.753906 8.363281 18.921875 8.363281 19.117188 Z M 8.363281 19.117188 " fill-opacity="1" fill-rule="nonzero"/><path fill="#e6d51a" d="M 14.433594 20.113281 C 14.433594 20.210938 14.398438 20.296875 14.328125 20.371094 C 14.257812 20.441406 14.171875 20.476562 14.070312 20.476562 C 13.972656 20.476562 13.886719 20.441406 13.816406 20.371094 C 13.746094 20.296875 13.710938 20.210938 13.710938 20.113281 C 13.710938 20.011719 13.746094 19.925781 13.816406 19.855469 C 13.886719 19.78125 13.972656 19.746094 14.070312 19.746094 C 14.171875 19.746094 14.257812 19.78125 14.328125 19.855469 C 14.398438 19.925781 14.433594 20.011719 14.433594 20.113281 Z M 14.433594 20.113281 " fill-opacity="1" fill-rule="nonzero"/><path fill="#e6d51a" d="M 16.597656 21.5 C 16.597656 21.601562 16.5625 21.6875 16.492188 21.757812 C 16.421875 21.828125 16.339844 21.867188 16.238281 21.867188 C 16.140625 21.867188 16.054688 21.828125 15.984375 21.757812 C 15.914062 21.6875 15.878906 21.601562 15.878906 21.5 C 15.878906 21.398438 15.914062 21.3125 15.984375 21.242188 C 16.054688 21.171875 16.140625 21.136719 16.238281 21.136719 C 16.339844 21.136719 16.421875 21.171875 16.492188 21.242188 C 16.5625 21.3125 16.597656 21.398438 16.597656 21.5 Z M 16.597656 21.5 " fill-opacity="1" fill-rule="nonzero"/><path fill="#e6d51a" d="M 17.675781 19.476562 C 17.675781 19.675781 17.839844 19.84375 18.035156 19.84375 C 18.234375 19.84375 18.394531 19.679688 18.394531 19.476562 C 18.394531 19.277344 18.234375 19.113281 18.035156 19.113281 C 17.839844 19.113281 17.675781 19.28125 17.675781 19.476562 Z M 17.675781 19.476562 " fill-opacity="1" fill-rule="nonzero"/><path fill="#e6d51a" d="M 19.476562 19.886719 C 19.476562 20.082031 19.640625 20.25 19.839844 20.25 C 20.035156 20.25 20.199219 20.085938 20.199219 19.886719 C 20.199219 19.683594 20.035156 19.519531 19.839844 19.519531 C 19.640625 19.519531 19.476562 19.683594 19.476562 19.886719 Z M 19.476562 19.886719 " fill-opacity="1" fill-rule="nonzero"/><path fill="#e6d51a" d="M 15.863281 18.136719 C 15.863281 18.238281 15.828125 18.324219 15.757812 18.394531 C 15.6875 18.464844 15.601562 18.503906 15.503906 18.503906 C 15.40625 18.503906 15.320312 18.464844 15.25 18.394531 C 15.179688 18.324219 15.144531 18.238281 15.144531 18.136719 C 15.144531 18.035156 15.179688 17.949219 15.25 17.878906 C 15.320312 17.808594 15.40625 17.773438 15.503906 17.773438 C 15.601562 17.773438 15.6875 17.808594 15.757812 17.878906 C 15.828125 17.949219 15.863281 18.035156 15.863281 18.136719 Z M 15.863281 18.136719 " fill-opacity="1" fill-rule="nonzero"/><path fill="#e6d51a" d="M 22.933594 21.503906 C 22.933594 21.605469 22.898438 21.691406 22.828125 21.761719 C 22.757812 21.835938 22.671875 21.871094 22.570312 21.871094 C 22.472656 21.871094 22.386719 21.835938 22.316406 21.761719 C 22.246094 21.691406 22.210938 21.605469 22.210938 21.503906 C 22.210938 21.40625 22.246094 21.316406 22.316406 21.246094 C 22.386719 21.175781 22.472656 21.140625 22.570312 21.140625 C 22.671875 21.140625 22.757812 21.175781 22.828125 21.246094 C 22.898438 21.316406 22.933594 21.40625 22.933594 21.503906 Z M 22.933594 21.503906 " fill-opacity="1" fill-rule="nonzero"/><path fill="#e6d51a" d="M 22.570312 19.480469 C 22.570312 19.285156 22.410156 19.117188 22.210938 19.117188 C 22.015625 19.117188 21.851562 19.28125 21.851562 19.480469 C 21.851562 19.683594 22.015625 19.847656 22.210938 19.847656 C 22.410156 19.847656 22.570312 19.683594 22.570312 19.480469 Z M 22.570312 19.480469 " fill-opacity="1" fill-rule="nonzero"/><path fill="#e6d51a" d="M 26.328125 19.929688 C 26.328125 20.125 26.492188 20.292969 26.695312 20.292969 C 26.894531 20.292969 27.054688 20.132812 27.054688 19.929688 C 27.054688 19.726562 26.890625 19.5625 26.695312 19.5625 C 26.496094 19.5625 26.328125 19.730469 26.328125 19.929688 Z M 26.328125 19.929688 " fill-opacity="1" fill-rule="nonzero"/><path fill="#e6d51a" d="M 28.773438 19.960938 C 28.578125 19.960938 28.414062 20.125 28.414062 20.328125 C 28.414062 20.53125 28.578125 20.691406 28.773438 20.691406 C 28.972656 20.691406 29.140625 20.53125 29.140625 20.328125 C 29.140625 20.125 28.972656 19.960938 28.773438 19.960938 Z M 28.773438 19.960938 " fill-opacity="1" fill-rule="nonzero"/><path fill="#e6d51a" d="M 20.65625 16.972656 C 20.65625 16.777344 20.492188 16.609375 20.292969 16.609375 C 20.097656 16.609375 19.933594 16.773438 19.933594 16.972656 C 19.933594 17.175781 20.097656 17.339844 20.292969 17.339844 C 20.492188 17.339844 20.65625 17.171875 20.65625 16.972656 Z M 20.65625 16.972656 " fill-opacity="1" fill-rule="nonzero"/><path fill="#e6d51a" d="M 29.746094 14.96875 C 29.746094 15.167969 29.910156 15.335938 30.105469 15.335938 C 30.304688 15.335938 30.472656 15.171875 30.472656 14.96875 C 30.472656 14.769531 30.308594 14.605469 30.105469 14.605469 C 29.902344 14.605469 29.746094 14.773438 29.746094 14.96875 Z M 29.746094 14.96875 " fill-opacity="1" fill-rule="nonzero"/><g clip-path="url(#df32516aa8)"><path fill="#e6d51a" d="M 30.519531 22.035156 L 30.203125 22.035156 C 30.210938 22.003906 30.222656 21.976562 30.222656 21.949219 C 30.222656 21.75 30.058594 21.582031 29.855469 21.582031 C 29.65625 21.582031 29.496094 21.746094 29.496094 21.949219 C 29.496094 21.976562 29.503906 22.003906 29.515625 22.035156 L 27.324219 22.035156 C 27.332031 22.003906 27.34375 21.976562 27.34375 21.949219 C 27.34375 21.75 27.179688 21.582031 26.976562 21.582031 C 26.777344 21.582031 26.617188 21.746094 26.617188 21.949219 C 26.617188 21.976562 26.628906 22.003906 26.636719 22.035156 L 25.003906 22.035156 C 25.003906 22.019531 25.011719 22.011719 25.011719 21.996094 C 25.011719 21.796875 24.847656 21.628906 24.652344 21.628906 C 24.457031 21.628906 24.292969 21.792969 24.292969 21.996094 C 24.292969 22.011719 24.296875 22.019531 24.300781 22.035156 L 21.011719 22.035156 C 20.949219 21.984375 20.875 21.953125 20.789062 21.953125 C 20.703125 21.953125 20.628906 21.984375 20.566406 22.035156 L 19.03125 22.035156 C 19.03125 22.019531 19.039062 22.011719 19.039062 21.996094 C 19.039062 21.796875 18.878906 21.628906 18.679688 21.628906 C 18.484375 21.628906 18.320312 21.792969 18.320312 21.996094 C 18.320312 22.011719 18.324219 22.019531 18.328125 22.035156 L 12.304688 22.035156 C 12.410156 21.972656 12.488281 21.855469 12.488281 21.726562 C 12.488281 21.527344 12.324219 21.359375 12.125 21.359375 C 11.929688 21.359375 11.765625 21.523438 11.765625 21.726562 C 11.765625 21.855469 11.84375 21.972656 11.949219 22.035156 L 9.953125 22.035156 C 9.953125 22.019531 9.964844 22.003906 9.964844 21.992188 C 9.964844 21.792969 9.800781 21.625 9.601562 21.625 C 9.40625 21.625 9.242188 21.789062 9.242188 21.992188 C 9.242188 22.003906 9.246094 22.019531 9.253906 22.035156 L 0.488281 22.035156 C 0.285156 22.035156 0.128906 22.191406 0.128906 22.394531 C 0.128906 22.597656 0.292969 24.195312 0.488281 24.195312 L 30.519531 24.195312 C 30.714844 24.195312 30.878906 22.589844 30.878906 22.394531 C 30.878906 22.195312 30.714844 22.035156 30.519531 22.035156 Z M 30.519531 22.035156 " fill-opacity="1" fill-rule="nonzero"/></g><g clip-path="url(#aae1e5a110)"><path fill="#e6d51a" d="M 0.484375 12.625 L 2.746094 12.625 C 2.757812 12.6875 2.765625 12.75 2.765625 12.8125 L 2.769531 13.691406 C 2.769531 15.625 3.980469 17.257812 4.742188 17.257812 C 5.597656 17.257812 5.660156 15.84375 5.660156 13.691406 L 5.660156 13.066406 C 5.660156 12.761719 5.914062 12.503906 6.222656 12.503906 C 6.527344 12.503906 6.777344 12.761719 6.777344 13.066406 L 6.777344 13.691406 C 6.777344 15.84375 6.84375 17.257812 7.695312 17.257812 C 8.542969 17.257812 9.671875 15.496094 9.671875 13.691406 L 9.671875 12.824219 C 9.671875 12.496094 9.820312 12.183594 10.089844 11.9375 C 10.332031 11.710938 10.527344 11.457031 10.679688 11.175781 C 10.832031 11.457031 11.027344 11.710938 11.269531 11.9375 C 11.539062 12.183594 11.6875 12.496094 11.6875 12.816406 L 11.6875 13.691406 C 11.6875 15.625 12.898438 17.257812 13.664062 17.257812 C 14.519531 17.257812 14.582031 15.84375 14.582031 13.691406 L 14.582031 13.066406 C 14.582031 12.761719 14.832031 12.503906 15.140625 12.503906 C 15.449219 12.503906 15.699219 12.761719 15.699219 13.066406 L 15.699219 13.691406 C 15.699219 15.84375 15.761719 17.257812 16.617188 17.257812 C 17.382812 17.257812 18.59375 15.625 18.59375 13.691406 L 18.59375 12.824219 C 18.59375 12.515625 18.734375 12.21875 18.976562 11.976562 C 19.132812 12.976562 19.75 13.8125 20.667969 14.226562 C 21 14.375 21.242188 14.625 21.34375 14.925781 L 21.617188 15.757812 C 21.976562 16.839844 22.648438 17.550781 23.019531 17.878906 C 23.21875 18.050781 23.851562 18.566406 24.382812 18.566406 C 24.464844 18.566406 24.539062 18.554688 24.609375 18.53125 C 25.234375 18.324219 25.0625 17.421875 25 17.078125 C 24.878906 16.457031 24.625 15.636719 24.363281 14.851562 L 24.167969 14.257812 C 24.121094 14.117188 24.132812 13.964844 24.199219 13.832031 C 24.269531 13.695312 24.382812 13.601562 24.523438 13.554688 C 24.816406 13.457031 25.132812 13.617188 25.230469 13.910156 L 25.425781 14.5 C 25.6875 15.289062 25.964844 16.09375 26.242188 16.671875 C 26.390625 16.984375 26.796875 17.808594 27.414062 17.605469 C 27.988281 17.417969 28.242188 16.429688 28.304688 16.132812 C 28.410156 15.648438 28.53125 14.675781 28.167969 13.589844 L 27.902344 12.769531 C 27.886719 12.722656 27.882812 12.671875 27.871094 12.625 L 30.515625 12.625 C 30.714844 12.625 30.878906 12.46875 30.878906 12.265625 C 30.878906 12.070312 30.714844 11.90625 30.515625 11.90625 L 27.972656 11.90625 C 27.988281 11.871094 28 11.832031 28.019531 11.800781 C 28.535156 10.882812 28.519531 9.78125 27.976562 8.855469 C 27.375 7.839844 26.277344 7.3125 25.09375 7.46875 C 24.355469 7.570312 23.6875 7.941406 23.21875 8.507812 C 23.066406 8.699219 22.8125 8.785156 22.570312 8.722656 C 21.859375 8.546875 21.101562 8.648438 20.449219 9.007812 C 20.257812 9.109375 20.085938 9.238281 19.929688 9.378906 C 19.917969 9.296875 19.910156 9.210938 19.890625 9.128906 C 19.640625 7.972656 18.761719 7.125 17.589844 6.914062 C 16.855469 6.773438 16.105469 6.917969 15.484375 7.3125 C 15.277344 7.441406 15.007812 7.441406 14.800781 7.3125 C 14.183594 6.917969 13.433594 6.773438 12.691406 6.914062 C 11.824219 7.070312 11.09375 7.609375 10.683594 8.355469 C 10.277344 7.605469 9.554688 7.074219 8.671875 6.914062 C 7.929688 6.773438 7.1875 6.917969 6.5625 7.3125 C 6.355469 7.441406 6.085938 7.441406 5.878906 7.3125 C 5.261719 6.917969 4.511719 6.773438 3.773438 6.914062 C 2.617188 7.125 1.714844 8 1.46875 9.132812 C 1.246094 10.164062 1.566406 11.199219 2.320312 11.90625 L 0.484375 11.90625 C 0.285156 11.90625 0.128906 12.070312 0.128906 12.265625 C 0.128906 12.46875 0.285156 12.625 0.484375 12.625 Z M 0.484375 12.625 " fill-opacity="1" fill-rule="nonzero"/></g></svg>