<svg xmlns="http://www.w3.org/2000/svg" xmlns:xlink="http://www.w3.org/1999/xlink" width="42" zoomAndPan="magnify" viewBox="0 0 31.5 31.499999" height="42" preserveAspectRatio="xMidYMid meet" version="1.0"><path fill="#e6d51a" d="M 30.1875 30.1875 L 0.488281 30.1875 L 0.488281 19.066406 C 3.480469 19.015625 5.175781 18 6.199219 17.386719 C 6.625 17.132812 6.960938 16.933594 7.175781 16.933594 C 7.582031 16.933594 7.929688 17.128906 8.070312 17.21875 C 8.195312 17.804688 8.292969 18.699219 8.40625 19.730469 C 8.585938 21.394531 8.8125 23.460938 9.261719 24.980469 C 9.578125 26.054688 10.414062 28.539062 11.585938 29.375 C 11.59375 29.382812 11.601562 29.386719 11.613281 29.390625 C 11.675781 29.433594 11.738281 29.476562 11.800781 29.507812 C 11.992188 29.609375 12.183594 29.660156 12.375 29.660156 C 12.496094 29.660156 12.613281 29.636719 12.734375 29.597656 C 12.832031 29.566406 12.917969 29.507812 13 29.429688 C 13.003906 29.421875 13.011719 29.417969 13.015625 29.410156 C 13.714844 28.671875 13.695312 26.179688 13.59375 23.257812 C 13.566406 22.445312 13.542969 21.746094 13.574219 21.449219 C 13.714844 20.140625 14.257812 19.558594 15.335938 19.558594 C 16.378906 19.558594 16.972656 20.195312 17.097656 21.445312 C 17.128906 21.738281 17.105469 22.425781 17.078125 23.222656 C 16.976562 26.160156 16.953125 28.667969 17.65625 29.410156 C 17.664062 29.417969 17.667969 29.421875 17.671875 29.425781 C 17.753906 29.507812 17.839844 29.566406 17.9375 29.597656 C 18.246094 29.703125 18.558594 29.671875 18.875 29.507812 C 18.9375 29.476562 19 29.433594 19.058594 29.390625 C 19.070312 29.386719 19.078125 29.382812 19.085938 29.375 C 20.261719 28.539062 21.09375 26.054688 21.414062 24.980469 C 21.859375 23.460938 22.085938 21.394531 22.265625 19.730469 C 22.378906 18.699219 22.480469 17.804688 22.605469 17.21875 C 22.746094 17.128906 23.09375 16.933594 23.5 16.933594 C 23.710938 16.933594 24.050781 17.132812 24.472656 17.386719 C 25.496094 18 27.191406 19.015625 30.1875 19.066406 Z M 6.441406 10.804688 C 6.566406 8.8125 8.054688 6.957031 10.148438 6.1875 C 11.410156 5.722656 12.503906 6.082031 13.5625 6.425781 C 13.773438 6.496094 13.972656 6.558594 14.171875 6.617188 L 13.824219 7.992188 C 13.445312 7.878906 13.003906 7.78125 12.28125 7.753906 C 11.816406 7.734375 11.371094 7.789062 10.949219 7.914062 C 10.941406 7.914062 10.9375 7.917969 10.933594 7.917969 C 9.722656 8.28125 8.734375 9.21875 8.179688 10.582031 C 7.691406 11.777344 7.730469 13.808594 7.84375 15.289062 C 7.796875 15.1875 7.75 15.089844 7.703125 14.988281 C 7.074219 13.65625 6.359375 12.144531 6.441406 10.804688 Z M 17.796875 0.488281 L 17.699219 0.796875 C 17.109375 0.828125 16.554688 0.972656 16.039062 1.234375 L 16.230469 0.488281 Z M 17.109375 6.425781 C 18.167969 6.082031 19.261719 5.722656 20.523438 6.1875 C 22.617188 6.957031 24.105469 8.8125 24.230469 10.804688 C 24.3125 12.144531 23.601562 13.65625 22.972656 14.988281 C 22.921875 15.089844 22.875 15.1875 22.828125 15.289062 C 22.941406 13.808594 22.980469 11.777344 22.492188 10.582031 C 21.9375 9.222656 20.957031 8.289062 19.75 7.925781 C 19.742188 7.921875 19.734375 7.914062 19.726562 7.914062 C 19.722656 7.914062 19.722656 7.914062 19.71875 7.914062 C 19.300781 7.789062 18.859375 7.734375 18.394531 7.753906 C 17.429688 7.792969 16.957031 7.953125 16.535156 8.09375 C 16.3125 8.167969 16.109375 8.234375 15.847656 8.273438 L 16.070312 7.578125 L 16.359375 6.65625 C 16.605469 6.589844 16.851562 6.511719 17.109375 6.425781 Z M 20.851562 18.226562 C 20.851562 15.867188 20.171875 14.28125 18.933594 13.71875 L 19.871094 8.476562 C 20.820312 8.84375 21.578125 9.632812 22.042969 10.765625 C 22.800781 12.628906 22.164062 16.925781 22.144531 17.03125 C 22.007812 17.644531 21.902344 18.585938 21.785156 19.679688 C 21.605469 21.320312 21.378906 23.363281 20.945312 24.84375 C 20.476562 26.429688 19.894531 27.710938 19.320312 28.457031 C 19.734375 26.277344 20.851562 20.207031 20.851562 18.226562 Z M 12.414062 13.546875 C 12.34375 13.550781 12.277344 13.558594 12.207031 13.570312 L 11.269531 8.332031 C 11.585938 8.261719 11.914062 8.226562 12.261719 8.238281 C 12.941406 8.265625 13.351562 8.355469 13.703125 8.464844 Z M 14.652344 6.703125 C 15.050781 6.410156 15.503906 6.234375 16 6.175781 L 15.65625 7.269531 C 15.203125 7.316406 14.789062 7.4375 14.417969 7.636719 Z M 15.128906 8.9375 C 14.726562 8.96875 14.347656 9.078125 14 9.269531 L 14.238281 8.332031 C 14.601562 8.042969 15.015625 7.859375 15.496094 7.78125 Z M 13.015625 15.621094 C 12.773438 15.648438 12.546875 15.714844 12.34375 15.8125 L 12.605469 14.777344 C 12.878906 14.546875 13.144531 14.40625 13.417969 14.355469 Z M 12.519531 17.199219 C 12.316406 17.222656 12.125 17.273438 11.953125 17.347656 L 12.164062 16.523438 C 12.359375 16.335938 12.585938 16.210938 12.851562 16.144531 Z M 12.085938 18.5625 C 11.921875 18.570312 11.765625 18.609375 11.617188 18.671875 L 11.769531 18.066406 C 11.929688 17.898438 12.125 17.789062 12.351562 17.726562 Z M 11.429688 19.414062 L 11.433594 19.394531 C 11.582031 19.234375 11.746094 19.128906 11.921875 19.082031 L 11.785156 19.515625 C 11.753906 19.613281 11.652344 19.667969 11.554688 19.636719 C 11.460938 19.609375 11.402344 19.511719 11.429688 19.414062 Z M 13.042969 13.046875 C 13.308594 12.789062 13.617188 12.636719 13.976562 12.585938 L 13.578125 13.847656 C 13.304688 13.859375 13.042969 13.929688 12.785156 14.066406 Z M 13.414062 11.585938 C 13.722656 11.359375 14.066406 11.195312 14.445312 11.101562 L 14.132812 12.085938 C 13.804688 12.097656 13.503906 12.175781 13.230469 12.316406 Z M 13.820312 9.984375 C 14.167969 9.6875 14.546875 9.511719 14.96875 9.445312 L 14.613281 10.570312 C 14.246094 10.632812 13.902344 10.746094 13.585938 10.90625 Z M 18.464844 13.570312 C 17.726562 13.4375 17.050781 13.796875 16.449219 14.125 C 16.042969 14.34375 15.65625 14.554688 15.335938 14.554688 C 15.015625 14.554688 14.632812 14.34375 14.222656 14.125 C 14.160156 14.089844 14.09375 14.058594 14.03125 14.023438 L 15.6875 8.78125 C 16.109375 8.75 16.394531 8.652344 16.691406 8.554688 C 17.097656 8.417969 17.519531 8.273438 18.414062 8.238281 C 18.757812 8.226562 19.089844 8.261719 19.402344 8.332031 Z M 15.035156 5.191406 C 15.488281 4.796875 15.980469 4.574219 16.527344 4.511719 L 16.160156 5.671875 C 15.679688 5.703125 15.230469 5.820312 14.824219 6.027344 Z M 15.472656 3.464844 C 15.96875 3.097656 16.484375 2.914062 17.035156 2.902344 L 16.683594 4.015625 C 16.160156 4.039062 15.671875 4.1875 15.222656 4.457031 Z M 15.871094 1.898438 C 16.378906 1.558594 16.941406 1.355469 17.542969 1.296875 L 17.1875 2.421875 C 16.652344 2.402344 16.136719 2.519531 15.648438 2.777344 Z M 8.527344 17.03125 C 8.511719 16.925781 7.871094 12.632812 8.628906 10.765625 C 9.09375 9.632812 9.851562 8.84375 10.800781 8.476562 L 11.738281 13.71875 C 10.503906 14.28125 9.824219 15.867188 9.824219 18.226562 C 9.824219 20.207031 10.941406 26.277344 11.355469 28.457031 C 10.777344 27.710938 10.195312 26.429688 9.726562 24.84375 C 9.292969 23.363281 9.070312 21.320312 8.890625 19.679688 C 8.769531 18.585938 8.667969 17.644531 8.527344 17.03125 Z M 17.5625 23.238281 C 17.59375 22.390625 17.617188 21.726562 17.582031 21.398438 C 17.433594 19.898438 16.636719 19.070312 15.335938 19.070312 C 14.011719 19.070312 13.253906 19.855469 13.089844 21.398438 C 13.054688 21.730469 13.078125 22.410156 13.109375 23.273438 C 13.152344 24.613281 13.234375 27.015625 12.988281 28.292969 C 12.789062 25.671875 12.550781 20.949219 13.042969 19.953125 C 13.558594 18.90625 14.308594 18.398438 15.335938 18.398438 C 16.363281 18.398438 17.113281 18.90625 17.628906 19.953125 C 18.121094 20.949219 17.882812 25.65625 17.683594 28.28125 C 17.433594 26.964844 17.519531 24.484375 17.5625 23.238281 Z M 18.648438 29.078125 C 18.457031 29.175781 18.28125 29.195312 18.105469 29.136719 C 18.199219 28.015625 18.753906 21.132812 18.066406 19.738281 C 17.46875 18.523438 16.550781 17.910156 15.335938 17.910156 C 14.125 17.910156 13.203125 18.523438 12.605469 19.738281 C 11.917969 21.132812 12.472656 28.015625 12.570312 29.136719 C 12.394531 29.195312 12.214844 29.175781 12.023438 29.078125 C 12.003906 29.066406 11.980469 29.050781 11.960938 29.039062 C 11.773438 28.058594 10.308594 20.417969 10.308594 18.226562 C 10.308594 15.96875 10.945312 14.503906 12.09375 14.097656 C 12.15625 14.078125 12.222656 14.066406 12.285156 14.054688 L 10.957031 19.296875 C 10.867188 19.644531 11.070312 20 11.414062 20.105469 C 11.476562 20.125 11.542969 20.132812 11.605469 20.132812 C 11.890625 20.132812 12.160156 19.949219 12.25 19.664062 L 13.882812 14.496094 C 13.917969 14.515625 13.957031 14.53125 13.992188 14.554688 C 14.457031 14.804688 14.894531 15.039062 15.335938 15.039062 C 15.777344 15.039062 16.21875 14.804688 16.679688 14.554688 C 17.296875 14.21875 17.933594 13.875 18.578125 14.097656 C 19.730469 14.503906 20.363281 15.96875 20.363281 18.226562 C 20.363281 20.417969 18.902344 28.058594 18.710938 29.039062 C 18.691406 29.050781 18.671875 29.066406 18.648438 29.078125 Z M 30.429688 18.582031 C 27.417969 18.582031 25.796875 17.613281 24.722656 16.96875 C 24.214844 16.667969 23.847656 16.445312 23.5 16.445312 C 23.234375 16.445312 22.996094 16.503906 22.796875 16.578125 C 22.957031 16.160156 23.179688 15.6875 23.410156 15.195312 C 24.066406 13.808594 24.808594 12.238281 24.714844 10.777344 C 24.582031 8.589844 22.964844 6.5625 20.691406 5.730469 C 19.273438 5.210938 18.042969 5.609375 16.957031 5.964844 C 16.8125 6.011719 16.671875 6.058594 16.535156 6.101562 L 18.363281 0.316406 C 18.386719 0.242188 18.371094 0.160156 18.328125 0.101562 C 18.28125 0.0351562 18.207031 0 18.128906 0 L 16.039062 0 C 15.929688 0 15.832031 0.0742188 15.804688 0.183594 L 14.292969 6.144531 C 14.105469 6.089844 13.914062 6.03125 13.714844 5.964844 C 12.632812 5.609375 11.402344 5.210938 9.980469 5.730469 C 7.710938 6.5625 6.089844 8.589844 5.957031 10.777344 C 5.867188 12.238281 6.609375 13.808594 7.261719 15.195312 C 7.496094 15.6875 7.71875 16.160156 7.875 16.578125 C 7.675781 16.503906 7.4375 16.445312 7.175781 16.445312 C 6.824219 16.445312 6.457031 16.667969 5.949219 16.96875 C 4.875 17.613281 3.257812 18.582031 0.242188 18.582031 C 0.109375 18.582031 0 18.691406 0 18.824219 L 0 30.429688 C 0 30.5625 0.109375 30.671875 0.242188 30.671875 L 30.429688 30.671875 C 30.566406 30.671875 30.671875 30.5625 30.671875 30.429688 L 30.671875 18.824219 C 30.671875 18.691406 30.566406 18.582031 30.429688 18.582031 " fill-opacity="1" fill-rule="nonzero"/></svg>