<svg xmlns="http://www.w3.org/2000/svg" xmlns:xlink="http://www.w3.org/1999/xlink" width="500" zoomAndPan="magnify" viewBox="0 0 375 374.999991" height="500" preserveAspectRatio="xMidYMid meet" version="1.0"><defs><clipPath id="93140943b8"><path d="M 108 268 L 269 268 L 269 363.792969 L 108 363.792969 Z M 108 268 " clip-rule="nonzero"/></clipPath><clipPath id="db89c00ab6"><path d="M 5.140625 268 L 29 268 L 29 276 L 5.140625 276 Z M 5.140625 268 " clip-rule="nonzero"/></clipPath><clipPath id="7e21452981"><path d="M 226 11.292969 L 369.640625 11.292969 L 369.640625 105 L 226 105 Z M 226 11.292969 " clip-rule="nonzero"/></clipPath><clipPath id="7e6cb27b34"><path d="M 137 11.292969 L 369.640625 11.292969 L 369.640625 173 L 137 173 Z M 137 11.292969 " clip-rule="nonzero"/></clipPath></defs><rect x="-37.5" width="450" fill="#ffffff" y="-37.499999" height="449.999989" fill-opacity="1"/><rect x="-37.5" width="450" fill="#ffffff" y="-37.499999" height="449.999989" fill-opacity="1"/><path fill="#e6d51a" d="M 89.351562 351.59375 C 84.980469 351.59375 79.875 348.3125 79.875 339.0625 C 79.875 338.195312 80.136719 336.960938 80.738281 334.253906 C 81.644531 330.097656 83.027344 323.816406 83.132812 318.714844 C 83.335938 308.441406 80.917969 299.71875 76.667969 295.378906 C 74.386719 293.054688 71.621094 291.921875 68.214844 291.921875 C 64.804688 291.921875 62.042969 293.054688 59.757812 295.378906 C 55.511719 299.71875 53.09375 308.441406 53.296875 318.714844 C 53.402344 323.816406 54.78125 330.097656 55.691406 334.253906 C 56.292969 336.960938 56.554688 338.195312 56.554688 339.0625 C 56.554688 348.3125 51.449219 351.59375 47.078125 351.59375 C 23.460938 351.59375 23.460938 306.953125 23.460938 282.972656 C 23.460938 275.019531 21.230469 269.984375 18.648438 264.148438 C 15.308594 256.605469 11.527344 248.054688 11.527344 231.652344 C 11.527344 204.523438 32.492188 202.414062 38.921875 202.414062 C 42.980469 202.414062 48.5 203.917969 54.351562 205.503906 C 59.558594 206.921875 64.949219 208.382812 68.214844 208.382812 C 71.476562 208.382812 76.867188 206.921875 82.078125 205.503906 C 87.925781 203.917969 93.445312 202.414062 97.507812 202.414062 C 103.933594 202.414062 124.902344 204.523438 124.902344 231.652344 C 124.902344 248.054688 121.121094 256.605469 117.78125 264.148438 C 115.199219 269.984375 112.96875 275.019531 112.96875 282.972656 C 112.96875 306.953125 112.96875 351.59375 89.351562 351.59375 Z M 68.214844 285.957031 C 73.238281 285.957031 77.515625 287.722656 80.929688 291.199219 C 88.640625 299.066406 89.210938 313.144531 89.097656 318.832031 C 88.984375 324.527344 87.527344 331.148438 86.5625 335.535156 C 86.183594 337.246094 85.882812 338.53125 85.839844 339.121094 C 85.839844 343.171875 87.152344 345.625 89.351562 345.625 C 107 345.625 107 303.308594 107 282.972656 C 107 273.757812 109.585938 267.917969 112.320312 261.734375 C 115.570312 254.390625 118.933594 246.792969 118.933594 231.652344 C 118.933594 212.421875 107.28125 208.382812 97.507812 208.382812 C 94.246094 208.382812 88.855469 209.84375 83.644531 211.261719 C 77.792969 212.847656 72.277344 214.351562 68.214844 214.351562 C 64.152344 214.351562 58.632812 212.847656 52.785156 211.261719 C 47.574219 209.84375 42.183594 208.382812 38.921875 208.382812 C 29.148438 208.382812 17.492188 212.421875 17.492188 231.652344 C 17.492188 246.792969 20.855469 254.390625 24.105469 261.734375 C 26.839844 267.917969 29.429688 273.757812 29.429688 282.972656 C 29.429688 303.308594 29.429688 345.625 47.078125 345.625 C 49.277344 345.625 50.585938 343.171875 50.585938 339.0625 C 50.546875 338.53125 50.242188 337.246094 49.863281 335.535156 C 48.902344 331.148438 47.445312 324.527344 47.328125 318.835938 C 47.21875 313.144531 47.789062 299.066406 55.5 291.199219 C 58.914062 287.722656 63.191406 285.957031 68.214844 285.957031 Z M 68.214844 285.957031 " fill-opacity="1" fill-rule="nonzero"/><path fill="#e6d51a" d="M 201.519531 271.824219 C 200.125 271.824219 198.691406 271.636719 197.210938 271.238281 C 192.988281 270.105469 188.910156 265.617188 191.296875 256.683594 C 191.523438 255.847656 192.097656 254.722656 193.371094 252.265625 C 195.328125 248.484375 198.289062 242.777344 199.710938 237.871094 C 202.574219 228.007812 202.496094 218.953125 199.507812 213.660156 C 197.910156 210.820312 195.527344 209.011719 192.234375 208.128906 C 188.949219 207.246094 185.972656 207.621094 183.175781 209.285156 C 177.941406 212.371094 173.347656 220.171875 170.890625 230.148438 C 169.671875 235.101562 169.382812 241.523438 169.1875 245.773438 C 169.0625 248.546875 168.996094 249.8125 168.769531 250.648438 C 167.667969 254.753906 165.804688 257.652344 163.214844 259.257812 C 161.164062 260.535156 158.683594 260.910156 156.375 260.296875 C 133.566406 254.1875 145.117188 211.070312 151.324219 187.902344 C 153.386719 180.21875 152.535156 174.777344 151.550781 168.476562 C 150.28125 160.324219 148.835938 151.082031 153.078125 135.246094 C 160.109375 109.042969 180.90625 112.429688 187.109375 114.089844 C 191.03125 115.144531 195.976562 118.019531 201.210938 121.0625 C 205.878906 123.78125 210.703125 126.589844 213.855469 127.4375 L 213.859375 127.4375 C 217.007812 128.28125 222.554688 128.261719 228.003906 128.242188 C 234.058594 128.210938 239.78125 128.207031 243.695312 129.253906 C 249.910156 130.917969 269.617188 138.386719 262.59375 164.585938 C 258.347656 180.425781 252.476562 187.707031 247.304688 194.128906 C 243.300781 199.097656 239.84375 203.386719 237.789062 211.070312 C 231.976562 232.726562 221.488281 271.820312 201.519531 271.824219 Z M 188.886719 201.695312 C 190.480469 201.695312 192.117188 201.921875 193.78125 202.367188 C 198.640625 203.667969 202.3125 206.480469 204.707031 210.730469 C 210.121094 220.332031 207.027344 234.070312 205.445312 239.53125 C 203.859375 245 200.738281 251.027344 198.667969 255.011719 C 197.863281 256.5625 197.234375 257.726562 197.050781 258.285156 C 196 262.195312 196.636719 264.90625 198.757812 265.476562 C 215.71875 270.054688 226.757812 229.167969 232.019531 209.523438 C 234.40625 200.625 238.410156 195.648438 242.660156 190.386719 C 247.699219 184.128906 252.910156 177.664062 256.824219 163.042969 C 261.808594 144.464844 251.597656 137.550781 242.152344 135.015625 C 239 134.171875 233.410156 134.1875 228.019531 134.210938 C 221.949219 134.238281 216.234375 134.25 212.316406 133.199219 C 208.390625 132.148438 203.441406 129.273438 198.210938 126.222656 C 193.539062 123.507812 188.714844 120.699219 185.5625 119.855469 C 176.136719 117.332031 163.824219 118.210938 158.847656 136.789062 C 154.925781 151.410156 156.207031 159.617188 157.445312 167.554688 C 158.488281 174.234375 159.476562 180.546875 157.089844 189.449219 C 151.824219 209.089844 140.875 249.964844 157.925781 254.535156 C 158.320312 254.640625 159.160156 254.75 160.0625 254.191406 C 160.933594 253.65625 162.144531 252.335938 163.007812 249.101562 C 163.109375 248.578125 163.144531 247.253906 163.226562 245.503906 C 163.429688 241.019531 163.734375 234.246094 165.097656 228.71875 C 166.460938 223.199219 170.652344 209.75 180.136719 204.144531 C 182.894531 202.515625 185.828125 201.695312 188.886719 201.695312 Z M 188.886719 201.695312 " fill-opacity="1" fill-rule="nonzero"/><g clip-path="url(#93140943b8)"><path fill="#e6d51a" d="M 181.589844 363.527344 C 155.222656 363.527344 137.65625 345.183594 133.398438 313.199219 C 132.589844 307.125 132.417969 301.085938 132.273438 295.757812 C 131.84375 279.980469 130.960938 274.019531 123.410156 274.019531 C 119.960938 274.019531 116.238281 274.484375 112.015625 275.441406 C 110.386719 275.800781 108.804688 274.789062 108.453125 273.1875 C 108.082031 271.578125 109.09375 269.984375 110.699219 269.617188 C 115.355469 268.566406 119.511719 268.054688 123.410156 268.054688 C 137.484375 268.054688 137.851562 281.429688 138.242188 295.59375 C 138.386719 301.027344 138.542969 306.644531 139.3125 312.410156 C 141.5625 329.277344 150.035156 357.5625 181.589844 357.5625 C 213.144531 357.5625 221.617188 329.277344 223.859375 312.414062 C 224.636719 306.644531 224.792969 301.027344 224.9375 295.59375 C 225.328125 281.429688 225.695312 268.054688 239.769531 268.054688 C 253.242188 268.054688 265.890625 274.058594 266.421875 274.316406 C 267.910156 275.027344 268.53125 276.808594 267.816406 278.296875 C 267.105469 279.777344 265.320312 280.414062 263.839844 279.695312 C 263.71875 279.640625 251.847656 274.019531 239.769531 274.019531 C 232.21875 274.019531 231.335938 279.980469 230.90625 295.757812 C 230.761719 301.085938 230.589844 307.125 229.773438 313.203125 C 225.519531 345.183594 207.957031 363.527344 181.589844 363.527344 Z M 181.589844 363.527344 " fill-opacity="1" fill-rule="nonzero"/></g><g clip-path="url(#db89c00ab6)"><path fill="#e6d51a" d="M 25.070312 275.511719 C 24.851562 275.511719 24.632812 275.488281 24.410156 275.441406 C 20.191406 274.484375 16.46875 274.019531 13.019531 274.019531 C 11.65625 274.019531 10.546875 274.203125 9.714844 274.554688 C 8.210938 275.21875 6.445312 274.5 5.796875 272.988281 C 5.152344 271.472656 5.855469 269.71875 7.371094 269.070312 C 8.96875 268.386719 10.816406 268.054688 13.019531 268.054688 C 16.917969 268.054688 21.070312 268.566406 25.726562 269.617188 C 27.335938 269.984375 28.34375 271.578125 27.976562 273.1875 C 27.667969 274.574219 26.433594 275.511719 25.070312 275.511719 Z M 25.070312 275.511719 " fill-opacity="1" fill-rule="nonzero"/></g><path fill="#e6d51a" d="M 265.128906 44.285156 C 265.128906 44.679688 265.089844 45.066406 265.015625 45.449219 C 264.9375 45.835938 264.824219 46.207031 264.675781 46.570312 C 264.523438 46.933594 264.339844 47.277344 264.125 47.601562 C 263.90625 47.925781 263.660156 48.230469 263.382812 48.507812 C 263.105469 48.785156 262.804688 49.03125 262.476562 49.25 C 262.152344 49.464844 261.808594 49.648438 261.445312 49.800781 C 261.082031 49.949219 260.710938 50.0625 260.324219 50.140625 C 259.941406 50.214844 259.554688 50.253906 259.160156 50.253906 C 258.769531 50.253906 258.382812 50.214844 257.996094 50.140625 C 257.613281 50.0625 257.242188 49.949219 256.878906 49.800781 C 256.515625 49.648438 256.171875 49.464844 255.847656 49.25 C 255.519531 49.03125 255.21875 48.785156 254.941406 48.507812 C 254.664062 48.230469 254.417969 47.925781 254.199219 47.601562 C 253.984375 47.277344 253.800781 46.933594 253.648438 46.570312 C 253.5 46.207031 253.386719 45.835938 253.308594 45.449219 C 253.234375 45.066406 253.195312 44.679688 253.195312 44.285156 C 253.195312 43.894531 253.234375 43.507812 253.308594 43.121094 C 253.386719 42.738281 253.5 42.363281 253.648438 42.003906 C 253.800781 41.640625 253.984375 41.296875 254.199219 40.972656 C 254.417969 40.644531 254.664062 40.34375 254.941406 40.066406 C 255.21875 39.789062 255.519531 39.542969 255.847656 39.324219 C 256.171875 39.109375 256.515625 38.921875 256.878906 38.773438 C 257.242188 38.625 257.613281 38.511719 257.996094 38.433594 C 258.382812 38.359375 258.769531 38.320312 259.160156 38.320312 C 259.554688 38.320312 259.941406 38.359375 260.324219 38.433594 C 260.710938 38.511719 261.082031 38.625 261.445312 38.773438 C 261.808594 38.921875 262.152344 39.109375 262.476562 39.324219 C 262.804688 39.542969 263.105469 39.789062 263.382812 40.066406 C 263.660156 40.34375 263.90625 40.644531 264.125 40.972656 C 264.339844 41.296875 264.523438 41.640625 264.675781 42.003906 C 264.824219 42.363281 264.9375 42.738281 265.015625 43.121094 C 265.089844 43.507812 265.128906 43.894531 265.128906 44.285156 Z M 265.128906 44.285156 " fill-opacity="1" fill-rule="nonzero"/><g clip-path="url(#7e21452981)"><path fill="#e6d51a" d="M 366.570312 104.851562 C 366.332031 104.851562 366.085938 104.824219 365.847656 104.761719 L 252.542969 76.421875 C 252.535156 76.421875 252.535156 76.421875 252.53125 76.417969 L 249.429688 75.644531 C 249.296875 75.609375 249.167969 75.570312 249.039062 75.519531 C 235.378906 71.019531 226.34375 58.539062 226.34375 44.285156 C 226.34375 26.191406 241.070312 11.46875 259.164062 11.46875 C 261.523438 11.46875 263.65625 11.6875 265.695312 12.132812 C 265.730469 12.136719 265.765625 12.148438 265.792969 12.15625 L 367.292969 37.515625 C 368.890625 37.914062 369.863281 39.535156 369.46875 41.132812 C 369.070312 42.730469 367.460938 43.703125 365.847656 43.300781 L 267.460938 18.722656 C 267.460938 18.71875 267.453125 18.71875 267.449219 18.714844 L 264.347656 17.941406 C 262.816406 17.605469 261.089844 17.433594 259.164062 17.433594 C 244.355469 17.433594 232.308594 29.480469 232.308594 44.285156 C 232.308594 56.027344 239.804688 66.300781 250.96875 69.878906 L 367.292969 98.976562 C 368.894531 99.375 369.863281 100.996094 369.46875 102.589844 C 369.128906 103.949219 367.910156 104.851562 366.570312 104.851562 Z M 366.570312 104.851562 " fill-opacity="1" fill-rule="nonzero"/></g><g clip-path="url(#7e6cb27b34)"><path fill="#e6d51a" d="M 145.785156 172.578125 C 144.363281 172.578125 143.140625 171.578125 142.863281 170.183594 C 136.691406 139.316406 134.972656 91.175781 142.953125 67.210938 C 155.722656 28.910156 187.398438 11.46875 211.425781 11.46875 L 366.570312 11.46875 C 368.21875 11.46875 369.554688 12.800781 369.554688 14.449219 C 369.554688 16.101562 368.21875 17.433594 366.570312 17.433594 L 211.425781 17.433594 C 189.46875 17.433594 160.449219 33.601562 148.617188 69.097656 C 142.382812 87.808594 142.417969 124.148438 146.160156 153.222656 C 151.359375 130.878906 162.605469 91.457031 179.726562 77.757812 C 192.277344 67.722656 215.089844 58.253906 252.441406 70.207031 C 253.074219 70.40625 253.507812 70.554688 253.742188 70.609375 L 253.085938 73.304688 L 254.886719 76.023438 C 253.636719 76.847656 252.6875 76.550781 250.625 75.890625 C 223.054688 67.070312 199.824219 69.320312 183.453125 82.421875 C 161.300781 100.140625 148.847656 169.417969 148.722656 170.113281 C 148.472656 171.527344 147.253906 172.5625 145.820312 172.578125 C 145.808594 172.578125 145.796875 172.578125 145.785156 172.578125 Z M 145.785156 172.578125 " fill-opacity="1" fill-rule="nonzero"/></g><path fill="#e6d51a" d="M 241.261719 208.382812 C 240.484375 208.382812 239.714844 208.078125 239.144531 207.5 C 238.207031 206.558594 238.007812 205.109375 238.648438 203.949219 C 238.949219 203.421875 268.113281 150.578125 268.113281 121.859375 C 268.113281 103.441406 263.507812 87.242188 259.644531 76.894531 C 259.523438 76.5625 259.460938 76.207031 259.460938 75.851562 C 259.460938 74.203125 260.792969 72.835938 262.441406 72.835938 C 263.847656 72.835938 265.03125 73.789062 265.34375 75.09375 C 269.355469 85.910156 274.078125 102.71875 274.078125 121.859375 C 274.078125 144.601562 257.71875 179.90625 249.058594 196.992188 C 266.796875 184.964844 303.914062 155.117188 303.914062 115.890625 C 303.914062 105.453125 302.367188 95.640625 299.304688 86.726562 C 298.769531 85.171875 299.597656 83.472656 301.160156 82.9375 C 302.722656 82.40625 304.410156 83.234375 304.949219 84.792969 C 308.222656 94.328125 309.882812 104.792969 309.882812 115.890625 C 309.882812 170.734375 245.433594 206.519531 242.6875 208.019531 C 242.238281 208.261719 241.75 208.382812 241.261719 208.382812 Z M 241.261719 208.382812 " fill-opacity="1" fill-rule="nonzero"/></svg>