<svg xmlns="http://www.w3.org/2000/svg" xmlns:xlink="http://www.w3.org/1999/xlink" width="42" zoomAndPan="magnify" viewBox="0 0 31.5 31.499999" height="42" preserveAspectRatio="xMidYMid meet" version="1.0"><path fill="#e6d51a" d="M 28.695312 19.675781 C 28.398438 19.582031 28.117188 19.621094 27.855469 19.792969 C 27.589844 19.96875 27.441406 20.21875 27.414062 20.539062 C 27.179688 23.253906 24.957031 24.523438 22.859375 24.578125 C 20.734375 24.625 18.414062 23.492188 18.039062 20.8125 C 17.984375 20.449219 17.816406 20.148438 17.535156 19.910156 C 17.257812 19.671875 16.933594 19.554688 16.566406 19.554688 L 14.425781 19.554688 C 14.515625 19.414062 14.605469 19.273438 14.699219 19.128906 C 15.046875 18.597656 15.402344 18.046875 15.640625 17.414062 C 16.539062 15.039062 15.382812 12.824219 13.777344 11.867188 C 12.371094 11.03125 10.230469 10.886719 8.269531 12.847656 C 6.308594 10.886719 4.164062 11.03125 2.761719 11.867188 C 1.152344 12.824219 -0.00390625 15.035156 0.894531 17.414062 C 1.132812 18.046875 1.492188 18.597656 1.839844 19.128906 C 1.96875 19.332031 2.09375 19.527344 2.214844 19.726562 C 1.726562 19.902344 1.332031 20.203125 1.035156 20.628906 C 0.734375 21.050781 0.585938 21.523438 0.585938 22.042969 L 0.585938 28.507812 C 0.585938 28.835938 0.648438 29.152344 0.773438 29.457031 C 0.902344 29.761719 1.082031 30.03125 1.3125 30.261719 C 1.546875 30.496094 1.816406 30.675781 2.121094 30.800781 C 2.421875 30.929688 2.742188 30.992188 3.070312 30.992188 L 27.929688 30.992188 C 28.261719 30.992188 28.578125 30.929688 28.882812 30.800781 C 29.1875 30.675781 29.457031 30.496094 29.6875 30.261719 C 29.921875 30.03125 30.101562 29.761719 30.226562 29.457031 C 30.355469 29.152344 30.417969 28.835938 30.417969 28.507812 L 30.417969 22.042969 C 30.417969 21.503906 30.261719 21.015625 29.941406 20.578125 C 29.625 20.140625 29.210938 19.839844 28.695312 19.675781 Z M 1.828125 17.0625 C 1.121094 15.199219 2.011719 13.453125 3.269531 12.722656 C 4.890625 11.777344 6.496094 12.355469 7.855469 13.863281 C 8.117188 14.390625 8.5 15.226562 9.972656 15.234375 C 10.109375 15.234375 10.226562 15.1875 10.324219 15.089844 C 10.421875 14.992188 10.46875 14.875 10.46875 14.738281 C 10.46875 14.601562 10.421875 14.484375 10.324219 14.386719 C 10.226562 14.289062 10.109375 14.238281 9.972656 14.238281 C 9.28125 14.238281 9.050781 13.996094 8.867188 13.660156 C 10.230469 12.234375 11.855469 11.878906 13.269531 12.722656 C 14.519531 13.464844 15.417969 15.199219 14.710938 17.0625 C 14.511719 17.597656 14.199219 18.078125 13.867188 18.585938 C 13.421875 19.269531 12.960938 19.976562 12.765625 20.851562 C 12.691406 21.214844 12.65625 21.582031 12.652344 21.953125 C 12.640625 22.304688 12.628906 22.636719 12.546875 22.945312 C 12.378906 23.59375 12 24.375 11.230469 24.34375 C 10.316406 24.324219 10.03125 23.46875 9.699219 22.160156 C 9.449219 21.179688 9.171875 20.070312 8.210938 20.128906 C 7.328125 20.179688 7.082031 21.210938 6.839844 22.160156 C 6.507812 23.46875 6.222656 24.324219 5.308594 24.34375 C 4.523438 24.378906 4.160156 23.59375 3.992188 22.945312 C 3.910156 22.636719 3.898438 22.304688 3.886719 21.953125 C 3.882812 21.582031 3.847656 21.214844 3.773438 20.851562 C 3.578125 19.976562 3.117188 19.269531 2.671875 18.585938 C 2.339844 18.078125 2.027344 17.597656 1.828125 17.0625 Z M 29.421875 28.507812 C 29.421875 28.703125 29.382812 28.894531 29.308594 29.078125 C 29.234375 29.257812 29.125 29.421875 28.984375 29.558594 C 28.847656 29.699219 28.683594 29.808594 28.5 29.882812 C 28.320312 29.960938 28.128906 29.996094 27.929688 29.996094 L 3.070312 29.996094 C 2.871094 29.996094 2.683594 29.960938 2.5 29.882812 C 2.316406 29.808594 2.15625 29.699219 2.015625 29.558594 C 1.875 29.421875 1.769531 29.257812 1.691406 29.078125 C 1.617188 28.894531 1.578125 28.703125 1.578125 28.507812 L 1.578125 22.042969 C 1.578125 21.710938 1.679688 21.414062 1.882812 21.148438 C 2.082031 20.882812 2.34375 20.707031 2.664062 20.617188 C 2.722656 20.765625 2.769531 20.914062 2.804688 21.070312 C 2.863281 21.375 2.890625 21.679688 2.890625 21.988281 C 2.90625 22.378906 2.921875 22.78125 3.027344 23.199219 C 3.390625 24.585938 4.226562 25.363281 5.332031 25.339844 C 7.066406 25.296875 7.492188 23.628906 7.804688 22.40625 C 7.914062 21.980469 8.039062 21.140625 8.269531 21.140625 C 8.5 21.140625 8.625 21.980469 8.734375 22.40625 C 9.042969 23.628906 9.472656 25.296875 11.207031 25.339844 C 12.316406 25.378906 13.144531 24.585938 13.507812 23.199219 C 13.617188 22.78125 13.632812 22.378906 13.644531 21.988281 C 13.648438 21.679688 13.675781 21.375 13.734375 21.070312 C 13.773438 20.890625 13.828125 20.71875 13.898438 20.550781 L 16.566406 20.550781 C 16.6875 20.546875 16.792969 20.585938 16.882812 20.660156 C 16.976562 20.734375 17.03125 20.832031 17.054688 20.949219 C 17.511719 24.21875 20.390625 25.628906 22.886719 25.574219 C 25.425781 25.507812 28.117188 23.949219 28.390625 20.625 C 28.699219 20.722656 28.949219 20.902344 29.136719 21.164062 C 29.328125 21.425781 29.421875 21.71875 29.421875 22.042969 Z M 29.421875 28.507812 " fill-opacity="1" fill-rule="nonzero"/><path fill="#e6d51a" d="M 28.242188 1.921875 C 26.835938 1.085938 24.695312 0.945312 22.734375 2.902344 C 20.769531 0.945312 18.628906 1.085938 17.222656 1.921875 C 15.617188 2.878906 14.460938 5.09375 15.359375 7.46875 C 15.597656 8.101562 15.957031 8.652344 16.300781 9.183594 C 16.71875 9.824219 17.109375 10.425781 17.269531 11.125 C 17.324219 11.429688 17.355469 11.734375 17.355469 12.046875 C 17.371094 12.433594 17.382812 12.835938 17.492188 13.253906 C 17.855469 14.640625 18.671875 15.417969 19.796875 15.394531 C 21.53125 15.363281 21.957031 13.683594 22.269531 12.464844 C 22.378906 12.035156 22.5 11.199219 22.734375 11.199219 C 22.964844 11.199219 23.089844 12.035156 23.199219 12.464844 C 23.507812 13.683594 23.933594 15.355469 25.667969 15.394531 C 26.773438 15.421875 27.609375 14.640625 27.972656 13.253906 C 28.082031 12.835938 28.097656 12.433594 28.109375 12.046875 C 28.109375 11.734375 28.140625 11.429688 28.199219 11.125 C 28.355469 10.425781 28.746094 9.824219 29.164062 9.183594 C 29.507812 8.652344 29.867188 8.101562 30.105469 7.46875 C 31.003906 5.09375 29.847656 2.878906 28.242188 1.921875 Z M 29.175781 7.117188 C 28.972656 7.652344 28.660156 8.132812 28.328125 8.640625 C 27.882812 9.324219 27.421875 10.035156 27.226562 10.90625 C 27.15625 11.269531 27.117188 11.640625 27.117188 12.007812 C 27.101562 12.359375 27.089844 12.691406 27.011719 13 C 26.839844 13.648438 26.464844 14.421875 25.691406 14.402344 C 24.78125 14.378906 24.492188 13.523438 24.160156 12.21875 C 23.914062 11.25 23.65625 10.179688 22.730469 10.179688 C 21.808594 10.179688 21.550781 11.25 21.304688 12.21875 C 20.972656 13.523438 20.683594 14.367188 19.773438 14.402344 C 18.992188 14.429688 18.625 13.648438 18.453125 13 C 18.375 12.691406 18.363281 12.359375 18.347656 12.011719 C 18.347656 11.640625 18.308594 11.269531 18.238281 10.90625 C 18.042969 10.035156 17.582031 9.324219 17.136719 8.640625 C 16.804688 8.132812 16.488281 7.652344 16.289062 7.117188 C 15.585938 5.253906 16.480469 3.523438 17.734375 2.777344 C 19.207031 1.898438 20.917969 2.324219 22.316406 3.914062 C 22.582031 4.445312 22.960938 5.28125 24.4375 5.289062 C 24.574219 5.289062 24.691406 5.242188 24.789062 5.144531 C 24.886719 5.046875 24.933594 4.929688 24.933594 4.792969 C 24.933594 4.65625 24.886719 4.539062 24.789062 4.441406 C 24.691406 4.34375 24.574219 4.296875 24.4375 4.296875 C 23.742188 4.296875 23.515625 4.050781 23.332031 3.714844 C 24.695312 2.292969 26.320312 1.9375 27.730469 2.777344 C 28.984375 3.523438 29.878906 5.253906 29.175781 7.117188 Z M 29.175781 7.117188 " fill-opacity="1" fill-rule="nonzero"/><path fill="#e6d51a" d="M 23.207031 17.773438 L 23.851562 18.417969 C 23.949219 18.511719 24.066406 18.558594 24.199219 18.554688 C 24.335938 18.554688 24.453125 18.507812 24.546875 18.410156 C 24.644531 18.3125 24.691406 18.199219 24.691406 18.0625 C 24.695312 17.925781 24.648438 17.8125 24.554688 17.714844 L 23.0625 16.222656 C 22.964844 16.125 22.847656 16.074219 22.710938 16.074219 C 22.574219 16.074219 22.457031 16.125 22.359375 16.222656 L 20.867188 17.714844 C 20.773438 17.8125 20.726562 17.925781 20.726562 18.0625 C 20.730469 18.199219 20.777344 18.3125 20.875 18.410156 C 20.96875 18.507812 21.085938 18.554688 21.21875 18.554688 C 21.355469 18.558594 21.472656 18.511719 21.570312 18.417969 L 22.214844 17.773438 L 22.214844 20.550781 C 22.214844 20.6875 22.261719 20.804688 22.359375 20.902344 C 22.457031 21 22.574219 21.046875 22.710938 21.046875 C 22.847656 21.046875 22.964844 21 23.0625 20.902344 C 23.160156 20.804688 23.207031 20.6875 23.207031 20.550781 Z M 23.207031 17.773438 " fill-opacity="1" fill-rule="nonzero"/><path fill="#e6d51a" d="M 23.207031 22.539062 C 23.207031 22.675781 23.160156 22.792969 23.0625 22.890625 C 22.964844 22.988281 22.847656 23.035156 22.710938 23.035156 C 22.574219 23.035156 22.457031 22.988281 22.359375 22.890625 C 22.261719 22.792969 22.214844 22.675781 22.214844 22.539062 C 22.214844 22.402344 22.261719 22.285156 22.359375 22.1875 C 22.457031 22.089844 22.574219 22.042969 22.710938 22.042969 C 22.847656 22.042969 22.964844 22.089844 23.0625 22.1875 C 23.160156 22.285156 23.207031 22.402344 23.207031 22.539062 Z M 23.207031 22.539062 " fill-opacity="1" fill-rule="nonzero"/></svg>