<svg xmlns="http://www.w3.org/2000/svg" xmlns:xlink="http://www.w3.org/1999/xlink" width="42" zoomAndPan="magnify" viewBox="0 0 31.5 31.499999" height="42" preserveAspectRatio="xMidYMid meet" version="1.0"><defs><clipPath id="7b3f7b8321"><path d="M 3 0.800781 L 28.675781 0.800781 L 28.675781 30.332031 L 3 30.332031 Z M 3 0.800781 " clip-rule="nonzero"/></clipPath></defs><g clip-path="url(#7b3f7b8321)"><path fill="#e6d51a" d="M 6.933594 8.089844 C 6.902344 7.90625 6.832031 7.730469 6.710938 7.585938 L 9.976562 5.191406 C 10.128906 5.488281 10.835938 6.835938 11.007812 7.160156 Z M 18.894531 10.734375 L 18.226562 9.34375 C 18.125 9.390625 17.285156 9.863281 17.195312 9.855469 C 17.046875 9.890625 16.882812 9.84375 16.761719 9.75 C 16.636719 9.644531 16.585938 9.480469 16.480469 9.355469 C 16.128906 8.863281 15.539062 8.554688 14.9375 8.550781 L 16.414062 11.628906 C 16.441406 11.597656 16.476562 11.5625 16.511719 11.527344 C 17.109375 10.882812 18.03125 10.605469 18.894531 10.734375 Z M 12.078125 8.390625 C 12.296875 8.808594 12.84375 8.949219 13.300781 8.714844 L 13.820312 8.441406 C 14.917969 7.84375 16.390625 8.300781 16.960938 9.417969 C 17 9.492188 17.097656 9.519531 17.171875 9.480469 C 17.59375 9.253906 18.527344 8.765625 18.945312 8.546875 C 19.019531 8.503906 19.046875 8.414062 19.007812 8.335938 L 15.300781 1.289062 C 15.128906 0.972656 14.757812 0.800781 14.371094 0.867188 C 12.742188 1.160156 11.195312 1.96875 10.03125 3.148438 C 9.757812 3.429688 9.683594 3.835938 9.855469 4.152344 Z M 27.851562 23.140625 C 26.46875 21.632812 25.191406 19.984375 24.042969 18.238281 C 22.65625 19.660156 20.542969 20.550781 18.59375 20.824219 C 18.484375 20.984375 18.371094 21.136719 18.25 21.285156 C 19.160156 23.539062 20.261719 25.726562 21.523438 27.804688 C 22.066406 28.699219 22.953125 29.316406 23.902344 29.453125 C 24.625 29.554688 25.292969 29.367188 25.785156 28.921875 L 27.746094 27.203125 C 28.902344 26.191406 28.902344 24.238281 27.851562 23.140625 Z M 19.03125 16.273438 C 19.574219 17.59375 19.5 19.148438 18.832031 20.414062 C 20.546875 20.167969 23.0625 18.953125 23.90625 17.8125 C 24.125 17.527344 24.203125 17.277344 24.140625 17.105469 L 23.007812 14.132812 C 22.914062 13.894531 22.519531 13.769531 21.9375 13.773438 C 21.960938 13.820312 21.980469 13.867188 22.003906 13.910156 C 22.054688 14.753906 20.3125 15.828125 19.03125 16.273438 Z M 16.035156 13.5 C 16.089844 13.519531 16.144531 13.535156 16.195312 13.558594 C 17.355469 13.960938 18.328125 14.835938 18.871094 15.929688 C 20.046875 15.535156 21.359375 14.703125 21.632812 14.007812 C 21.421875 13.582031 21.230469 13.148438 21.019531 12.714844 C 19.742188 10.289062 16.300781 10.59375 16.035156 13.5 Z M 6.570312 8.3125 C 6.621094 7.765625 5.988281 7.363281 5.515625 7.632812 C 5.160156 7.816406 5.023438 8.253906 5.210938 8.609375 C 5.550781 9.246094 6.542969 9.035156 6.570312 8.3125 Z M 11.453125 15.074219 C 11.382812 15.148438 11.246094 15.148438 11.179688 15.074219 C 10.339844 14.164062 9.203125 13.660156 7.988281 13.660156 C 3.988281 13.660156 2.105469 18.746094 5.058594 21.445312 C 6.003906 22.292969 6.398438 23.574219 6.289062 24.84375 C 6.289062 26.8125 7.058594 28.675781 8.355469 29.839844 C 8.765625 30.199219 9.386719 29.902344 9.386719 29.417969 C 9.386719 26.703125 10.058594 23.839844 11.316406 23.839844 C 12.570312 23.839844 13.242188 26.707031 13.242188 29.40625 C 13.242188 29.910156 13.851562 30.203125 14.273438 29.84375 C 15.644531 28.625 16.4375 26.550781 16.332031 24.507812 C 16.28125 23.339844 16.734375 22.226562 17.578125 21.449219 C 17.683594 21.347656 17.792969 21.238281 17.894531 21.125 C 18.621094 20.308594 19.03125 19.230469 19.023438 18.132812 C 19.023438 14.144531 14.199219 12.105469 11.453125 15.074219 Z M 11.453125 15.074219 " fill-opacity="1" fill-rule="nonzero"/></g></svg>